<svg xmlns="http://www.w3.org/2000/svg" viewBox="0 0 185 60">
  <g fill-rule="nonzero" fill="none">
    <path fill="#4197CB" d="M127.78 38.926l3.831-5.763h-2.89l-2.419 3.753-2.486-3.753h-2.822l3.763 5.763-4.1 6.232h2.823l2.822-4.221 2.756 4.221h2.89zM119.246 45.158v-2.54h-8.45v-5.08h7.342v-2.54h-7.341v-4.94h8.242l.069-2.54h-11.151v17.64zM27.518 14.112V7.056h-7.056z"/>
    <path d="M29.04 21.168H7.73c-1.571 0-2.869 1.288-2.869 2.915l-.683 4.95L.079 40.558c-.274.61.205 1.22.82 1.22l2.663.272c.273 0 .547.203.547.542l.614 7.39c.137 1.492 1.367 2.644 2.87 2.644l2.8.204c.273 0 .546.203.546.542l.752 4.339c.136.881.82 1.56 1.707 1.56H27.47c.82 0 1.571-.61 1.708-1.492l3.21-17.424c0-.136.068-.34.068-.475V24.693c.069-1.898-1.502-3.525-3.415-3.525" fill="#33234B"/>
    <path d="M19.269 16.229c.348-.647.488-1.423.488-2.2 0-3.04-2.65-5.562-5.998-5.562-3.278 0-5.997 2.458-5.997 5.563 0 .776.209 1.552.488 2.199h11.019zM14.818 0h4.234v4.234h-4.234z" fill="#4197CB"/>
    <path d="M99.856 44.876a5.29 5.29 0 001.221-.776c.272-.282.543-.635.679-.917.135-.353.271-.565.339-.776l.203 2.61h1.425V27.518h-1.832v6.845c-.067-.212-.203-.424-.407-.706-.203-.282-.475-.494-.746-.776a3.09 3.09 0 00-1.153-.635c-.475-.141-1.018-.282-1.56-.282-1.086 0-1.968.282-2.715.846-.746.565-1.221 1.27-1.628 2.258-.34.988-.543 2.117-.543 3.458 0 2.187.475 3.81 1.357 4.939s2.103 1.693 3.596 1.693c.678 0 1.289-.07 1.764-.282m-4.139-2.61c-.542-.918-.882-2.188-.882-3.81 0-1.694.34-2.894.95-3.67.61-.776 1.493-1.2 2.51-1.2.815 0 1.493.212 2.036.565.475.353.882.917 1.085 1.693.204.706.34 1.623.34 2.611 0 1.835-.272 3.175-.814 4.022-.543.847-1.425 1.2-2.714 1.2-1.086 0-1.9-.494-2.51-1.412M82.247 45.158v-8.444c0-.628.14-1.116.487-1.465.278-.419.696-.698 1.252-.907.487-.21 1.044-.28 1.67-.28.835 0 1.53.28 2.087.768.487.489.765 1.326.765 2.373v7.955h1.809v-8.164c0-1.047-.209-1.885-.557-2.582a3.114 3.114 0 00-1.53-1.466c-.626-.349-1.322-.488-2.157-.488-.626 0-1.182.07-1.739.279-.487.21-.974.418-1.322.767a3.67 3.67 0 00-.834.977v-1.814h-1.74v12.491h1.81zM73.456 44.612c.76-.41 1.313-1.024 1.796-2.048l.139 2.321h1.52V36.35c0-.888-.208-1.57-.553-2.185-.346-.615-.83-1.025-1.52-1.298-.69-.273-1.52-.41-2.487-.41-.967 0-1.796.137-2.487.41-.69.273-1.243.683-1.589 1.23-.345.546-.621 1.16-.621 1.98h1.658c.138-.751.483-1.366 1.036-1.707a3.565 3.565 0 011.934-.547c.967 0 1.727.205 2.21.683.484.478.691 1.093.691 1.912v1.024l-2.348.069c-2.004.068-3.523.41-4.421 1.092-.898.683-1.382 1.639-1.382 3.005 0 .75.138 1.365.484 1.912.345.546.76.887 1.381 1.229.553.273 1.244.41 2.073.41.967 0 1.796-.205 2.486-.547m-3.799-1.434c-.484-.41-.76-.956-.76-1.707 0-.614.138-1.16.484-1.502.345-.41.76-.683 1.45-.888.622-.205 1.451-.273 2.487-.341l1.934-.069v2.186c0 .34-.138.682-.345 1.024-.207.341-.483.614-.829.887-.345.274-.76.478-1.174.683a4.065 4.065 0 01-1.313.205c-.829.137-1.45-.068-1.934-.478M61.625 45.02v-7.938c0-.552.063-.966.254-1.38.19-.345.38-.69.697-.898a4.716 4.716 0 011.015-.483c.38-.069.761-.138 1.142-.069.127 0 .254 0 .444.07.19 0 .317.068.444.137v-1.794c-.127-.07-.254-.138-.38-.138-.191 0-.318-.07-.508-.07-.444 0-.888.07-1.269.277-.444.138-.824.414-1.141.828-.317.345-.571.828-.761 1.45v-2.21h-1.586v12.356h1.649v-.138zM49.668 45.158c1.981 0 3.5-.421 4.556-1.194 1.056-.773 1.518-1.968 1.518-3.514 0-.492-.066-.984-.198-1.476a3.997 3.997 0 00-.594-1.195 3.752 3.752 0 00-1.056-.984 5.434 5.434 0 00-1.585-.632c1.123-.422 1.915-.914 2.311-1.617.462-.703.66-1.476.66-2.46 0-1.475-.528-2.6-1.518-3.373-.99-.773-2.443-1.195-4.358-1.195h-4.951v17.57h5.215v.07zm-3.367-8.082h3.632c.792 0 1.452.14 2.112.352.66.21 1.123.562 1.519 1.054.396.492.528 1.124.528 1.897 0 1.055-.396 1.898-1.122 2.39-.727.492-1.85.773-3.302.773h-3.3v-6.466H46.3zm0-7.87h3.301c1.255 0 2.245.28 2.971.772.793.492 1.123 1.335 1.123 2.46 0 .632-.132 1.124-.33 1.476-.198.421-.529.703-.925.913-.396.211-.792.422-1.254.492-.462.07-.858.14-1.32.14H46.3v-6.254z" fill="#2D0D44"/>
    <path d="M141.055 32.605h-2.548V28.93h-2.548v3.675h-1.895v2.081h1.83v7.213c0 .693.065 1.248.26 1.734.197.485.523.832 1.046 1.11.523.277 1.176.415 2.09.415.523 0 .915 0 1.177-.069.326-.07.522-.139.653-.208v-1.873h-1.372c-.261 0-.523 0-.719-.069-.196-.07-.326-.139-.392-.347-.065-.138-.13-.416-.13-.832v-7.143h2.548v-2.012zM146.495 45.158v-7.257c0-.489.062-.907.187-1.256.124-.35.373-.628.622-.838.25-.21.623-.418.997-.488.373-.07.871-.14 1.37-.07h.31c.125 0 .25.07.312.07v-2.792c-.062-.07-.125-.07-.25-.07h-.373c-.498 0-.996.14-1.432.35-.436.209-.81.558-1.12.977-.312.418-.56.976-.748 1.605v-2.722h-2.428v12.491h2.553zM158.828 44.615c.683-.34 1.161-.95 1.64-1.902l.204 2.174h2.322v-8.558c0-.815-.137-1.494-.478-2.106a3.305 3.305 0 00-1.57-1.29c-.684-.34-1.64-.475-2.732-.475-.956 0-1.844.135-2.595.407a3.77 3.77 0 00-1.775 1.29c-.41.544-.683 1.223-.683 2.106h2.39c.136-.611.478-1.087.956-1.358a3.185 3.185 0 011.57-.408c.751 0 1.366.204 1.707.544.342.34.547.882.547 1.494v.815l-1.776.068c-2.048 0-3.55.407-4.507 1.086-.956.68-1.638 1.698-1.638 3.057 0 .747.41 1.426.75 1.97.342.543.82.95 1.435 1.222.614.272 1.297.407 2.048.407.751-.068 1.502-.203 2.185-.543m-2.936-1.97c-.41-.34-.614-.815-.614-1.426 0-.543.136-.95.478-1.29.273-.34.75-.544 1.229-.68.546-.135 1.16-.203 1.912-.203h1.434v1.901c0 .272-.069.612-.274.883-.136.272-.41.544-.682.747-.274.204-.547.408-.888.544a2.753 2.753 0 01-1.024.204c-.615-.136-1.093-.34-1.57-.68M167.722 33.177c-.825.548-1.512 1.301-1.924 2.26-.481.958-.688 2.053-.688 3.354 0 1.37.275 2.465.756 3.423.481.959 1.169 1.644 1.993 2.191.825.48 1.787.753 2.887.753.893 0 1.718-.205 2.405-.547a4.567 4.567 0 001.719-1.507 4.64 4.64 0 00.756-2.19h-2.337a3.22 3.22 0 01-.412 1.027 2.365 2.365 0 01-.825.821 2.38 2.38 0 01-1.237.342c-.962 0-1.718-.41-2.268-1.163-.55-.754-.825-1.78-.825-3.081 0-1.438.275-2.465.825-3.15.55-.684 1.306-1.027 2.199-1.027.481 0 .893.137 1.306.343.343.205.618.479.825.821.206.343.343.685.412 1.027h2.405c-.068-.821-.343-1.643-.756-2.26-.412-.684-.962-1.163-1.718-1.574-.687-.41-1.512-.548-2.474-.548-1.168-.136-2.2.137-3.024.685M184.096 32.605h-2.548V28.93H179v3.675h-1.894v2.081h1.829v7.213c0 .693.065 1.248.261 1.734.196.485.523.832 1.046 1.11.522.277 1.176.415 2.09.415.523 0 .915 0 1.176-.069.327-.07.523-.139.654-.208v-1.873h-1.372c-.262 0-.523 0-.72-.069-.195-.07-.326-.139-.391-.347-.065-.138-.13-.416-.13-.832v-7.143h2.547v-2.012z" fill="#4197CB"/>
  </g>
</svg>
